<mxfile host="app.diagrams.net" modified="2024-04-02T01:18:42.631Z" agent="Mozilla/5.0 (Windows NT 10.0; Win64; x64) AppleWebKit/537.36 (KHTML, like Gecko) Chrome/123.0.0.0 Safari/537.36" etag="hev0h_Vw-5nHOvmAzjne" version="24.2.1" type="device" pages="3">
  <diagram id="C5RBs43oDa-KdzZeNtuy" name="検索、削除">
    <mxGraphModel dx="1861" dy="459" grid="1" gridSize="10" guides="1" tooltips="1" connect="1" arrows="1" fold="1" page="1" pageScale="1" pageWidth="827" pageHeight="1169" math="0" shadow="0">
      <root>
        <mxCell id="WIyWlLk6GJQsqaUBKTNV-0" />
        <mxCell id="WIyWlLk6GJQsqaUBKTNV-1" parent="WIyWlLk6GJQsqaUBKTNV-0" />
        <mxCell id="WIyWlLk6GJQsqaUBKTNV-3" value="データベース接続" style="rounded=1;whiteSpace=wrap;html=1;fontSize=12;glass=0;strokeWidth=1;shadow=0;" parent="WIyWlLk6GJQsqaUBKTNV-1" vertex="1">
          <mxGeometry x="-630" y="80" width="120" height="40" as="geometry" />
        </mxCell>
        <mxCell id="h9rZooUtNr8oj8G2S-ER-3" value="" style="edgeStyle=orthogonalEdgeStyle;rounded=0;orthogonalLoop=1;jettySize=auto;html=1;" parent="WIyWlLk6GJQsqaUBKTNV-1" source="WIyWlLk6GJQsqaUBKTNV-11" edge="1">
          <mxGeometry relative="1" as="geometry">
            <mxPoint x="-255" y="889" as="targetPoint" />
          </mxGeometry>
        </mxCell>
        <mxCell id="WIyWlLk6GJQsqaUBKTNV-11" value="検索条件に&lt;br&gt;都道府県を追加" style="rounded=1;whiteSpace=wrap;html=1;fontSize=12;glass=0;strokeWidth=1;shadow=0;" parent="WIyWlLk6GJQsqaUBKTNV-1" vertex="1">
          <mxGeometry x="-315" y="819" width="120" height="40" as="geometry" />
        </mxCell>
        <mxCell id="h9rZooUtNr8oj8G2S-ER-1" value="" style="edgeStyle=orthogonalEdgeStyle;rounded=0;orthogonalLoop=1;jettySize=auto;html=1;" parent="WIyWlLk6GJQsqaUBKTNV-1" source="h9rZooUtNr8oj8G2S-ER-0" target="WIyWlLk6GJQsqaUBKTNV-3" edge="1">
          <mxGeometry relative="1" as="geometry">
            <Array as="points">
              <mxPoint x="-560" y="80" />
              <mxPoint x="-560" y="80" />
            </Array>
          </mxGeometry>
        </mxCell>
        <mxCell id="h9rZooUtNr8oj8G2S-ER-0" value="start" style="ellipse;whiteSpace=wrap;html=1;" parent="WIyWlLk6GJQsqaUBKTNV-1" vertex="1">
          <mxGeometry x="-630" y="30" width="120" height="30" as="geometry" />
        </mxCell>
        <mxCell id="ytKObgBI_jLJxSGm0-5G-5" style="edgeStyle=orthogonalEdgeStyle;rounded=0;orthogonalLoop=1;jettySize=auto;html=1;exitX=0.5;exitY=1;exitDx=0;exitDy=0;entryX=0.5;entryY=0;entryDx=0;entryDy=0;" parent="WIyWlLk6GJQsqaUBKTNV-1" source="h9rZooUtNr8oj8G2S-ER-10" target="h9rZooUtNr8oj8G2S-ER-13" edge="1">
          <mxGeometry relative="1" as="geometry" />
        </mxCell>
        <mxCell id="h9rZooUtNr8oj8G2S-ER-10" value="検索条件に&lt;br&gt;滞在レベルを追加" style="whiteSpace=wrap;html=1;rounded=1;glass=0;strokeWidth=1;shadow=0;" parent="WIyWlLk6GJQsqaUBKTNV-1" vertex="1">
          <mxGeometry x="-315" y="959" width="120" height="40" as="geometry" />
        </mxCell>
        <mxCell id="s13l2MW78z2p8p0Ib397-3" value="" style="edgeStyle=orthogonalEdgeStyle;rounded=0;orthogonalLoop=1;jettySize=auto;html=1;" parent="WIyWlLk6GJQsqaUBKTNV-1" source="h9rZooUtNr8oj8G2S-ER-13" target="s13l2MW78z2p8p0Ib397-2" edge="1">
          <mxGeometry relative="1" as="geometry" />
        </mxCell>
        <mxCell id="h9rZooUtNr8oj8G2S-ER-13" value="検索条件に&lt;br&gt;訪問日を追加" style="whiteSpace=wrap;html=1;rounded=1;glass=0;strokeWidth=1;shadow=0;" parent="WIyWlLk6GJQsqaUBKTNV-1" vertex="1">
          <mxGeometry x="-315" y="1029" width="120" height="40" as="geometry" />
        </mxCell>
        <mxCell id="s13l2MW78z2p8p0Ib397-2" value="B" style="ellipse;whiteSpace=wrap;html=1;rounded=1;glass=0;strokeWidth=1;shadow=0;" parent="WIyWlLk6GJQsqaUBKTNV-1" vertex="1">
          <mxGeometry x="-275" y="1109" width="40" height="40" as="geometry" />
        </mxCell>
        <mxCell id="echClZm6UsjZQWHw3Wsp-2" style="edgeStyle=orthogonalEdgeStyle;rounded=0;orthogonalLoop=1;jettySize=auto;html=1;exitX=0.5;exitY=1;exitDx=0;exitDy=0;entryX=0.5;entryY=0;entryDx=0;entryDy=0;" parent="WIyWlLk6GJQsqaUBKTNV-1" source="s13l2MW78z2p8p0Ib397-4" target="echClZm6UsjZQWHw3Wsp-1" edge="1">
          <mxGeometry relative="1" as="geometry" />
        </mxCell>
        <mxCell id="s13l2MW78z2p8p0Ib397-4" value="B" style="ellipse;whiteSpace=wrap;html=1;rounded=1;glass=0;strokeWidth=1;shadow=0;" parent="WIyWlLk6GJQsqaUBKTNV-1" vertex="1">
          <mxGeometry x="39" y="10" width="40" height="40" as="geometry" />
        </mxCell>
        <mxCell id="s13l2MW78z2p8p0Ib397-7" value="都道府県情報&lt;br&gt;の表示" style="rounded=1;whiteSpace=wrap;html=1;fontSize=12;glass=0;strokeWidth=1;shadow=0;" parent="WIyWlLk6GJQsqaUBKTNV-1" vertex="1">
          <mxGeometry x="-1" y="540" width="120" height="40" as="geometry" />
        </mxCell>
        <mxCell id="s13l2MW78z2p8p0Ib397-11" value="件数が1件以上" style="rhombus;whiteSpace=wrap;html=1;shadow=0;fontFamily=Helvetica;fontSize=12;align=center;strokeWidth=1;spacing=6;spacingTop=-4;" parent="WIyWlLk6GJQsqaUBKTNV-1" vertex="1">
          <mxGeometry x="-1" y="350" width="120" height="80" as="geometry" />
        </mxCell>
        <mxCell id="s13l2MW78z2p8p0Ib397-22" style="edgeStyle=orthogonalEdgeStyle;rounded=0;orthogonalLoop=1;jettySize=auto;html=1;exitX=0.5;exitY=1;exitDx=0;exitDy=0;exitPerimeter=0;entryX=0.5;entryY=0;entryDx=0;entryDy=0;" parent="WIyWlLk6GJQsqaUBKTNV-1" source="s13l2MW78z2p8p0Ib397-13" target="s13l2MW78z2p8p0Ib397-7" edge="1">
          <mxGeometry relative="1" as="geometry" />
        </mxCell>
        <mxCell id="s13l2MW78z2p8p0Ib397-13" value="都道府県取得結果を&lt;br&gt;1行ずつ読込&lt;br&gt;終端まで繰返" style="strokeWidth=2;html=1;shape=mxgraph.flowchart.loop_limit;whiteSpace=wrap;" parent="WIyWlLk6GJQsqaUBKTNV-1" vertex="1">
          <mxGeometry x="-1" y="450" width="120" height="60" as="geometry" />
        </mxCell>
        <mxCell id="s13l2MW78z2p8p0Ib397-20" style="edgeStyle=orthogonalEdgeStyle;rounded=0;orthogonalLoop=1;jettySize=auto;html=1;exitX=0.5;exitY=0;exitDx=0;exitDy=0;exitPerimeter=0;entryX=0.5;entryY=0;entryDx=0;entryDy=0;" parent="WIyWlLk6GJQsqaUBKTNV-1" source="s13l2MW78z2p8p0Ib397-14" target="s13l2MW78z2p8p0Ib397-19" edge="1">
          <mxGeometry relative="1" as="geometry" />
        </mxCell>
        <mxCell id="s13l2MW78z2p8p0Ib397-14" value="" style="strokeWidth=2;html=1;shape=mxgraph.flowchart.loop_limit;whiteSpace=wrap;rotation=-180;" parent="WIyWlLk6GJQsqaUBKTNV-1" vertex="1">
          <mxGeometry x="-1" y="600" width="120" height="60" as="geometry" />
        </mxCell>
        <mxCell id="s13l2MW78z2p8p0Ib397-17" style="edgeStyle=orthogonalEdgeStyle;rounded=0;orthogonalLoop=1;jettySize=auto;html=1;exitX=0.5;exitY=1;exitDx=0;exitDy=0;entryX=0.5;entryY=0;entryDx=0;entryDy=0;" parent="WIyWlLk6GJQsqaUBKTNV-1" source="s13l2MW78z2p8p0Ib397-15" target="s13l2MW78z2p8p0Ib397-11" edge="1">
          <mxGeometry relative="1" as="geometry" />
        </mxCell>
        <mxCell id="s13l2MW78z2p8p0Ib397-15" value="件数の表示" style="rounded=1;whiteSpace=wrap;html=1;fontSize=12;glass=0;strokeWidth=1;shadow=0;" parent="WIyWlLk6GJQsqaUBKTNV-1" vertex="1">
          <mxGeometry x="-1" y="290" width="120" height="40" as="geometry" />
        </mxCell>
        <mxCell id="s13l2MW78z2p8p0Ib397-19" value="end" style="ellipse;whiteSpace=wrap;html=1;" parent="WIyWlLk6GJQsqaUBKTNV-1" vertex="1">
          <mxGeometry x="-1" y="680" width="120" height="30" as="geometry" />
        </mxCell>
        <mxCell id="s13l2MW78z2p8p0Ib397-21" style="edgeStyle=orthogonalEdgeStyle;rounded=0;orthogonalLoop=1;jettySize=auto;html=1;exitX=0.5;exitY=1;exitDx=0;exitDy=0;entryX=0.5;entryY=1;entryDx=0;entryDy=0;entryPerimeter=0;" parent="WIyWlLk6GJQsqaUBKTNV-1" source="s13l2MW78z2p8p0Ib397-7" target="s13l2MW78z2p8p0Ib397-14" edge="1">
          <mxGeometry relative="1" as="geometry" />
        </mxCell>
        <mxCell id="s13l2MW78z2p8p0Ib397-24" value="NO" style="edgeStyle=orthogonalEdgeStyle;rounded=0;html=1;jettySize=auto;orthogonalLoop=1;fontSize=11;endArrow=block;endFill=0;endSize=8;strokeWidth=1;shadow=0;labelBackgroundColor=none;" parent="WIyWlLk6GJQsqaUBKTNV-1" edge="1">
          <mxGeometry x="-0.8095" y="14" relative="1" as="geometry">
            <mxPoint x="-4" y="-10" as="offset" />
            <mxPoint x="59" y="670" as="targetPoint" />
            <Array as="points">
              <mxPoint x="159" y="390" />
            </Array>
            <mxPoint x="119" y="390" as="sourcePoint" />
          </mxGeometry>
        </mxCell>
        <mxCell id="s13l2MW78z2p8p0Ib397-28" value="YES" style="edgeStyle=orthogonalEdgeStyle;rounded=0;orthogonalLoop=1;jettySize=auto;html=1;exitX=0.5;exitY=1;exitDx=0;exitDy=0;entryX=0.5;entryY=0;entryDx=0;entryDy=0;entryPerimeter=0;" parent="WIyWlLk6GJQsqaUBKTNV-1" source="s13l2MW78z2p8p0Ib397-11" target="s13l2MW78z2p8p0Ib397-13" edge="1">
          <mxGeometry y="20" relative="1" as="geometry">
            <mxPoint as="offset" />
          </mxGeometry>
        </mxCell>
        <mxCell id="-CAleXuv_7LKCS2JvVPr-17" style="edgeStyle=orthogonalEdgeStyle;rounded=0;orthogonalLoop=1;jettySize=auto;html=1;exitX=0.5;exitY=1;exitDx=0;exitDy=0;entryX=0.5;entryY=0;entryDx=0;entryDy=0;" parent="WIyWlLk6GJQsqaUBKTNV-1" source="WKHt31poT0Ce64Y8X5nI-4" target="-CAleXuv_7LKCS2JvVPr-12" edge="1">
          <mxGeometry relative="1" as="geometry" />
        </mxCell>
        <mxCell id="WKHt31poT0Ce64Y8X5nI-4" value="検索条件(都道府県)の&lt;br&gt;入力チェック" style="rounded=1;whiteSpace=wrap;html=1;fontSize=12;glass=0;strokeWidth=1;shadow=0;" parent="WIyWlLk6GJQsqaUBKTNV-1" vertex="1">
          <mxGeometry x="-315" y="164" width="120" height="40" as="geometry" />
        </mxCell>
        <mxCell id="-CAleXuv_7LKCS2JvVPr-19" style="edgeStyle=orthogonalEdgeStyle;rounded=0;orthogonalLoop=1;jettySize=auto;html=1;exitX=0.5;exitY=1;exitDx=0;exitDy=0;" parent="WIyWlLk6GJQsqaUBKTNV-1" source="WKHt31poT0Ce64Y8X5nI-5" edge="1">
          <mxGeometry relative="1" as="geometry">
            <mxPoint x="-255" y="390" as="targetPoint" />
          </mxGeometry>
        </mxCell>
        <mxCell id="WKHt31poT0Ce64Y8X5nI-5" value="検索条件(地方)の&lt;br&gt;入力チェック" style="rounded=1;whiteSpace=wrap;html=1;fontSize=12;glass=0;strokeWidth=1;shadow=0;" parent="WIyWlLk6GJQsqaUBKTNV-1" vertex="1">
          <mxGeometry x="-315" y="332" width="120" height="40" as="geometry" />
        </mxCell>
        <mxCell id="-CAleXuv_7LKCS2JvVPr-21" style="edgeStyle=orthogonalEdgeStyle;rounded=0;orthogonalLoop=1;jettySize=auto;html=1;exitX=0.5;exitY=1;exitDx=0;exitDy=0;entryX=0.5;entryY=0;entryDx=0;entryDy=0;" parent="WIyWlLk6GJQsqaUBKTNV-1" source="WKHt31poT0Ce64Y8X5nI-6" target="-CAleXuv_7LKCS2JvVPr-14" edge="1">
          <mxGeometry relative="1" as="geometry" />
        </mxCell>
        <mxCell id="WKHt31poT0Ce64Y8X5nI-6" value="検索条件(滞在レベル)の入力チェック" style="rounded=1;whiteSpace=wrap;html=1;fontSize=12;glass=0;strokeWidth=1;shadow=0;" parent="WIyWlLk6GJQsqaUBKTNV-1" vertex="1">
          <mxGeometry x="-315" y="494" width="120" height="40" as="geometry" />
        </mxCell>
        <mxCell id="WKHt31poT0Ce64Y8X5nI-9" value="入力チェックOK?" style="rhombus;whiteSpace=wrap;html=1;rounded=1;glass=0;strokeWidth=1;shadow=0;" parent="WIyWlLk6GJQsqaUBKTNV-1" vertex="1">
          <mxGeometry x="-315" y="702" width="120" height="80" as="geometry" />
        </mxCell>
        <mxCell id="-CAleXuv_7LKCS2JvVPr-23" style="edgeStyle=orthogonalEdgeStyle;rounded=0;orthogonalLoop=1;jettySize=auto;html=1;exitX=0.5;exitY=1;exitDx=0;exitDy=0;entryX=0.5;entryY=0;entryDx=0;entryDy=0;" parent="WIyWlLk6GJQsqaUBKTNV-1" source="WKHt31poT0Ce64Y8X5nI-11" edge="1">
          <mxGeometry relative="1" as="geometry">
            <mxPoint x="-255" y="709" as="targetPoint" />
          </mxGeometry>
        </mxCell>
        <mxCell id="WKHt31poT0Ce64Y8X5nI-11" value="検索条件(訪問日)&lt;br&gt;の入力チェック" style="rounded=1;whiteSpace=wrap;html=1;fontSize=12;glass=0;strokeWidth=1;shadow=0;" parent="WIyWlLk6GJQsqaUBKTNV-1" vertex="1">
          <mxGeometry x="-314" y="651" width="120" height="40" as="geometry" />
        </mxCell>
        <mxCell id="WKHt31poT0Ce64Y8X5nI-15" value="" style="edgeStyle=orthogonalEdgeStyle;rounded=0;orthogonalLoop=1;jettySize=auto;html=1;" parent="WIyWlLk6GJQsqaUBKTNV-1" source="WKHt31poT0Ce64Y8X5nI-16" edge="1">
          <mxGeometry relative="1" as="geometry">
            <mxPoint x="-255" y="959" as="targetPoint" />
          </mxGeometry>
        </mxCell>
        <mxCell id="WKHt31poT0Ce64Y8X5nI-16" value="検索条件に&lt;br&gt;地方を追加" style="rounded=1;whiteSpace=wrap;html=1;fontSize=12;glass=0;strokeWidth=1;shadow=0;" parent="WIyWlLk6GJQsqaUBKTNV-1" vertex="1">
          <mxGeometry x="-315" y="889" width="120" height="40" as="geometry" />
        </mxCell>
        <mxCell id="WKHt31poT0Ce64Y8X5nI-20" style="edgeStyle=orthogonalEdgeStyle;rounded=0;orthogonalLoop=1;jettySize=auto;html=1;exitX=0.5;exitY=1;exitDx=0;exitDy=0;entryX=0.5;entryY=0;entryDx=0;entryDy=0;" parent="WIyWlLk6GJQsqaUBKTNV-1" source="WKHt31poT0Ce64Y8X5nI-18" target="s13l2MW78z2p8p0Ib397-15" edge="1">
          <mxGeometry relative="1" as="geometry" />
        </mxCell>
        <mxCell id="WKHt31poT0Ce64Y8X5nI-18" value="メッセージ表示" style="rounded=1;whiteSpace=wrap;html=1;fontSize=12;glass=0;strokeWidth=1;shadow=0;" parent="WIyWlLk6GJQsqaUBKTNV-1" vertex="1">
          <mxGeometry x="-1" y="220" width="120" height="40" as="geometry" />
        </mxCell>
        <mxCell id="ytKObgBI_jLJxSGm0-5G-3" value="YES" style="edgeStyle=orthogonalEdgeStyle;rounded=0;orthogonalLoop=1;jettySize=auto;html=1;exitX=0.5;exitY=1;exitDx=0;exitDy=0;entryX=0.5;entryY=0;entryDx=0;entryDy=0;" parent="WIyWlLk6GJQsqaUBKTNV-1" target="WIyWlLk6GJQsqaUBKTNV-11" edge="1">
          <mxGeometry relative="1" as="geometry">
            <mxPoint x="-255" y="782" as="sourcePoint" />
          </mxGeometry>
        </mxCell>
        <mxCell id="ytKObgBI_jLJxSGm0-5G-10" value="地方以外が含まれていないか" style="shape=callout;whiteSpace=wrap;html=1;perimeter=calloutPerimeter;position2=0;size=30;position=0.1;fillColor=#f8cecc;strokeColor=#b85450;rounded=1;rotation=0;direction=south;" parent="WIyWlLk6GJQsqaUBKTNV-1" vertex="1">
          <mxGeometry x="-195" y="344.5" width="170" height="44.5" as="geometry" />
        </mxCell>
        <mxCell id="ytKObgBI_jLJxSGm0-5G-12" value="都道府県以外が含まれていないか&lt;br&gt;地方が含まれていないか" style="shape=callout;whiteSpace=wrap;html=1;perimeter=calloutPerimeter;position2=0;size=30;position=0.1;fillColor=#f8cecc;strokeColor=#b85450;rounded=1;rotation=0;direction=south;" parent="WIyWlLk6GJQsqaUBKTNV-1" vertex="1">
          <mxGeometry x="-195" y="179.5" width="170" height="44.5" as="geometry" />
        </mxCell>
        <mxCell id="ytKObgBI_jLJxSGm0-5G-13" value="滞在レベル以外が含まれていないか" style="shape=callout;whiteSpace=wrap;html=1;perimeter=calloutPerimeter;position2=0;size=30;position=0.1;fillColor=#f8cecc;strokeColor=#b85450;rounded=1;rotation=0;direction=south;" parent="WIyWlLk6GJQsqaUBKTNV-1" vertex="1">
          <mxGeometry x="-195" y="519.5" width="170" height="44.5" as="geometry" />
        </mxCell>
        <mxCell id="xarFJbH8t3tPUQ2cAIag-0" value="日付として正しいか&lt;br&gt;存在する日付であるか" style="shape=callout;whiteSpace=wrap;html=1;perimeter=calloutPerimeter;position2=0;size=30;position=0.1;fillColor=#f8cecc;strokeColor=#b85450;rounded=1;rotation=0;direction=south;" parent="WIyWlLk6GJQsqaUBKTNV-1" vertex="1">
          <mxGeometry x="-195" y="663.5" width="170" height="44.5" as="geometry" />
        </mxCell>
        <mxCell id="echClZm6UsjZQWHw3Wsp-4" style="edgeStyle=orthogonalEdgeStyle;rounded=0;orthogonalLoop=1;jettySize=auto;html=1;exitX=0.5;exitY=1;exitDx=0;exitDy=0;entryX=0.5;entryY=0;entryDx=0;entryDy=0;" parent="WIyWlLk6GJQsqaUBKTNV-1" source="echClZm6UsjZQWHw3Wsp-0" target="WKHt31poT0Ce64Y8X5nI-18" edge="1">
          <mxGeometry relative="1" as="geometry" />
        </mxCell>
        <mxCell id="echClZm6UsjZQWHw3Wsp-0" value="記録情報&lt;br&gt;取得SQL実行" style="rounded=1;whiteSpace=wrap;html=1;fontSize=12;glass=0;strokeWidth=1;shadow=0;" parent="WIyWlLk6GJQsqaUBKTNV-1" vertex="1">
          <mxGeometry x="-1" y="150" width="120" height="40" as="geometry" />
        </mxCell>
        <mxCell id="echClZm6UsjZQWHw3Wsp-3" style="edgeStyle=orthogonalEdgeStyle;rounded=0;orthogonalLoop=1;jettySize=auto;html=1;exitX=0.5;exitY=1;exitDx=0;exitDy=0;entryX=0.5;entryY=0;entryDx=0;entryDy=0;" parent="WIyWlLk6GJQsqaUBKTNV-1" source="echClZm6UsjZQWHw3Wsp-1" target="echClZm6UsjZQWHw3Wsp-0" edge="1">
          <mxGeometry relative="1" as="geometry" />
        </mxCell>
        <mxCell id="echClZm6UsjZQWHw3Wsp-1" value="件数取得SQL実行" style="rounded=1;whiteSpace=wrap;html=1;fontSize=12;glass=0;strokeWidth=1;shadow=0;" parent="WIyWlLk6GJQsqaUBKTNV-1" vertex="1">
          <mxGeometry x="-1" y="80" width="120" height="40" as="geometry" />
        </mxCell>
        <mxCell id="echClZm6UsjZQWHw3Wsp-5" value="A" style="ellipse;whiteSpace=wrap;html=1;rounded=1;glass=0;strokeWidth=1;shadow=0;" parent="WIyWlLk6GJQsqaUBKTNV-1" vertex="1">
          <mxGeometry x="-276" y="10" width="40" height="40" as="geometry" />
        </mxCell>
        <mxCell id="echClZm6UsjZQWHw3Wsp-7" value="A" style="ellipse;whiteSpace=wrap;html=1;rounded=1;glass=0;strokeWidth=1;shadow=0;" parent="WIyWlLk6GJQsqaUBKTNV-1" vertex="1">
          <mxGeometry x="-589" y="626" width="40" height="40" as="geometry" />
        </mxCell>
        <mxCell id="foq4J8ouvWqciJdM8DYg-0" style="edgeStyle=orthogonalEdgeStyle;rounded=0;orthogonalLoop=1;jettySize=auto;html=1;exitX=0.5;exitY=1;exitDx=0;exitDy=0;entryX=0.5;entryY=0;entryDx=0;entryDy=0;" parent="WIyWlLk6GJQsqaUBKTNV-1" target="foq4J8ouvWqciJdM8DYg-4" edge="1">
          <mxGeometry relative="1" as="geometry">
            <mxPoint x="-570" y="119" as="sourcePoint" />
          </mxGeometry>
        </mxCell>
        <mxCell id="foq4J8ouvWqciJdM8DYg-1" style="edgeStyle=orthogonalEdgeStyle;rounded=0;orthogonalLoop=1;jettySize=auto;html=1;exitX=0.5;exitY=1;exitDx=0;exitDy=0;entryX=0.5;entryY=0;entryDx=0;entryDy=0;" parent="WIyWlLk6GJQsqaUBKTNV-1" source="foq4J8ouvWqciJdM8DYg-2" edge="1">
          <mxGeometry relative="1" as="geometry">
            <mxPoint x="-570" y="316" as="targetPoint" />
          </mxGeometry>
        </mxCell>
        <mxCell id="foq4J8ouvWqciJdM8DYg-2" value="Postされた社員番号の入力チェック" style="rounded=1;whiteSpace=wrap;html=1;fontSize=12;glass=0;strokeWidth=1;shadow=0;fillColor=#f8cecc;strokeColor=#b85450;" parent="WIyWlLk6GJQsqaUBKTNV-1" vertex="1">
          <mxGeometry x="-629" y="249" width="120" height="40" as="geometry" />
        </mxCell>
        <mxCell id="foq4J8ouvWqciJdM8DYg-3" value="YES" style="edgeStyle=orthogonalEdgeStyle;rounded=0;orthogonalLoop=1;jettySize=auto;html=1;exitX=0.5;exitY=1;exitDx=0;exitDy=0;entryX=0.5;entryY=0;entryDx=0;entryDy=0;" parent="WIyWlLk6GJQsqaUBKTNV-1" source="foq4J8ouvWqciJdM8DYg-4" target="foq4J8ouvWqciJdM8DYg-2" edge="1">
          <mxGeometry relative="1" as="geometry" />
        </mxCell>
        <mxCell id="foq4J8ouvWqciJdM8DYg-17" value="NO" style="edgeStyle=orthogonalEdgeStyle;rounded=0;orthogonalLoop=1;jettySize=auto;html=1;exitX=1;exitY=0.5;exitDx=0;exitDy=0;" parent="WIyWlLk6GJQsqaUBKTNV-1" source="foq4J8ouvWqciJdM8DYg-4" edge="1">
          <mxGeometry relative="1" as="geometry">
            <mxPoint x="-570" y="620" as="targetPoint" />
            <Array as="points">
              <mxPoint x="-469" y="182" />
            </Array>
          </mxGeometry>
        </mxCell>
        <mxCell id="foq4J8ouvWqciJdM8DYg-4" value="Post通信かつ&lt;br&gt;削除ボタン押下" style="rhombus;whiteSpace=wrap;html=1;rounded=1;glass=0;strokeWidth=1;shadow=0;fillColor=#f8cecc;strokeColor=#b85450;" parent="WIyWlLk6GJQsqaUBKTNV-1" vertex="1">
          <mxGeometry x="-630" y="140" width="120" height="84" as="geometry" />
        </mxCell>
        <mxCell id="foq4J8ouvWqciJdM8DYg-5" style="edgeStyle=orthogonalEdgeStyle;rounded=0;orthogonalLoop=1;jettySize=auto;html=1;exitX=0.5;exitY=1;exitDx=0;exitDy=0;entryX=0.5;entryY=0;entryDx=0;entryDy=0;" parent="WIyWlLk6GJQsqaUBKTNV-1" source="foq4J8ouvWqciJdM8DYg-6" edge="1">
          <mxGeometry relative="1" as="geometry">
            <mxPoint x="-570" y="487" as="targetPoint" />
          </mxGeometry>
        </mxCell>
        <mxCell id="foq4J8ouvWqciJdM8DYg-6" value="トランザクション" style="rounded=1;whiteSpace=wrap;html=1;fontSize=12;glass=0;strokeWidth=1;shadow=0;fillColor=#f8cecc;strokeColor=#b85450;" parent="WIyWlLk6GJQsqaUBKTNV-1" vertex="1">
          <mxGeometry x="-629" y="420" width="120" height="40" as="geometry" />
        </mxCell>
        <mxCell id="foq4J8ouvWqciJdM8DYg-7" value="YES" style="edgeStyle=orthogonalEdgeStyle;rounded=0;orthogonalLoop=1;jettySize=auto;html=1;exitX=0.5;exitY=1;exitDx=0;exitDy=0;entryX=0.5;entryY=0;entryDx=0;entryDy=0;" parent="WIyWlLk6GJQsqaUBKTNV-1" source="foq4J8ouvWqciJdM8DYg-8" target="foq4J8ouvWqciJdM8DYg-6" edge="1">
          <mxGeometry relative="1" as="geometry" />
        </mxCell>
        <mxCell id="foq4J8ouvWqciJdM8DYg-16" value="NO" style="edgeStyle=orthogonalEdgeStyle;rounded=0;orthogonalLoop=1;jettySize=auto;html=1;exitX=1;exitY=0.5;exitDx=0;exitDy=0;" parent="WIyWlLk6GJQsqaUBKTNV-1" source="foq4J8ouvWqciJdM8DYg-8" edge="1">
          <mxGeometry relative="1" as="geometry">
            <mxPoint x="-570" y="620" as="targetPoint" />
            <Array as="points">
              <mxPoint x="-489" y="353" />
            </Array>
          </mxGeometry>
        </mxCell>
        <mxCell id="foq4J8ouvWqciJdM8DYg-8" value="入力チェックOK?" style="rhombus;whiteSpace=wrap;html=1;rounded=1;glass=0;strokeWidth=1;shadow=0;fillColor=#f8cecc;strokeColor=#b85450;" parent="WIyWlLk6GJQsqaUBKTNV-1" vertex="1">
          <mxGeometry x="-630" y="311" width="120" height="84" as="geometry" />
        </mxCell>
        <mxCell id="foq4J8ouvWqciJdM8DYg-9" style="edgeStyle=orthogonalEdgeStyle;rounded=0;orthogonalLoop=1;jettySize=auto;html=1;exitX=0.5;exitY=1;exitDx=0;exitDy=0;entryX=0.5;entryY=0;entryDx=0;entryDy=0;" parent="WIyWlLk6GJQsqaUBKTNV-1" source="foq4J8ouvWqciJdM8DYg-10" edge="1">
          <mxGeometry relative="1" as="geometry">
            <mxPoint x="-570" y="557" as="targetPoint" />
          </mxGeometry>
        </mxCell>
        <mxCell id="foq4J8ouvWqciJdM8DYg-10" value="記録情報削除SQLの実行" style="rounded=1;whiteSpace=wrap;html=1;fontSize=12;glass=0;strokeWidth=1;shadow=0;fillColor=#f8cecc;strokeColor=#b85450;" parent="WIyWlLk6GJQsqaUBKTNV-1" vertex="1">
          <mxGeometry x="-629" y="490" width="120" height="40" as="geometry" />
        </mxCell>
        <mxCell id="foq4J8ouvWqciJdM8DYg-12" style="edgeStyle=orthogonalEdgeStyle;rounded=0;orthogonalLoop=1;jettySize=auto;html=1;exitX=0.5;exitY=1;exitDx=0;exitDy=0;entryX=0.5;entryY=0;entryDx=0;entryDy=0;" parent="WIyWlLk6GJQsqaUBKTNV-1" source="foq4J8ouvWqciJdM8DYg-13" edge="1">
          <mxGeometry relative="1" as="geometry">
            <mxPoint x="-570" y="627" as="targetPoint" />
          </mxGeometry>
        </mxCell>
        <mxCell id="foq4J8ouvWqciJdM8DYg-13" value="コミット" style="rounded=1;whiteSpace=wrap;html=1;fontSize=12;glass=0;strokeWidth=1;shadow=0;fillColor=#f8cecc;strokeColor=#b85450;" parent="WIyWlLk6GJQsqaUBKTNV-1" vertex="1">
          <mxGeometry x="-629" y="560" width="120" height="40" as="geometry" />
        </mxCell>
        <mxCell id="foq4J8ouvWqciJdM8DYg-19" value="空白でないか&lt;br&gt;都道府県以外が含まれていないか&lt;br style=&quot;border-color: var(--border-color);&quot;&gt;地方が含まれていないか" style="shape=callout;whiteSpace=wrap;html=1;perimeter=calloutPerimeter;position2=0;size=30;position=0.1;fillColor=#f8cecc;strokeColor=#b85450;rounded=1;rotation=0;direction=south;" parent="WIyWlLk6GJQsqaUBKTNV-1" vertex="1">
          <mxGeometry x="-505" y="254.5" width="170" height="65.5" as="geometry" />
        </mxCell>
        <mxCell id="KRCZenm-yOvbnEp3B1t5-0" value="削除処理" style="rhombus;whiteSpace=wrap;html=1;rounded=1;glass=0;strokeWidth=1;shadow=0;fillColor=#f8cecc;strokeColor=#b85450;" parent="WIyWlLk6GJQsqaUBKTNV-1" vertex="1">
          <mxGeometry x="-800" y="60" width="120" height="84" as="geometry" />
        </mxCell>
        <mxCell id="-CAleXuv_7LKCS2JvVPr-16" value="YES" style="edgeStyle=orthogonalEdgeStyle;rounded=0;orthogonalLoop=1;jettySize=auto;html=1;exitX=0.5;exitY=1;exitDx=0;exitDy=0;entryX=0.5;entryY=0;entryDx=0;entryDy=0;" parent="WIyWlLk6GJQsqaUBKTNV-1" source="-CAleXuv_7LKCS2JvVPr-1" target="WKHt31poT0Ce64Y8X5nI-4" edge="1">
          <mxGeometry relative="1" as="geometry" />
        </mxCell>
        <mxCell id="-CAleXuv_7LKCS2JvVPr-27" value="NO" style="edgeStyle=orthogonalEdgeStyle;rounded=0;orthogonalLoop=1;jettySize=auto;html=1;exitX=1;exitY=0.5;exitDx=0;exitDy=0;" parent="WIyWlLk6GJQsqaUBKTNV-1" source="-CAleXuv_7LKCS2JvVPr-1" edge="1">
          <mxGeometry x="-0.5566" relative="1" as="geometry">
            <mxPoint x="-250" y="220" as="targetPoint" />
            <Array as="points">
              <mxPoint x="-175" y="103" />
              <mxPoint x="-175" y="220" />
            </Array>
            <mxPoint as="offset" />
          </mxGeometry>
        </mxCell>
        <mxCell id="-CAleXuv_7LKCS2JvVPr-1" value="都道府県に全件検索ワードが入っていない" style="rhombus;whiteSpace=wrap;html=1;rounded=1;glass=0;strokeWidth=1;shadow=0;" parent="WIyWlLk6GJQsqaUBKTNV-1" vertex="1">
          <mxGeometry x="-315" y="61" width="120" height="84" as="geometry" />
        </mxCell>
        <mxCell id="-CAleXuv_7LKCS2JvVPr-6" value="b" style="ellipse;whiteSpace=wrap;html=1;rounded=1;glass=0;strokeWidth=1;shadow=0;" parent="WIyWlLk6GJQsqaUBKTNV-1" vertex="1">
          <mxGeometry x="-140" y="1109" width="40" height="40" as="geometry" />
        </mxCell>
        <mxCell id="-CAleXuv_7LKCS2JvVPr-10" style="edgeStyle=orthogonalEdgeStyle;rounded=0;orthogonalLoop=1;jettySize=auto;html=1;exitX=0.5;exitY=1;exitDx=0;exitDy=0;" parent="WIyWlLk6GJQsqaUBKTNV-1" source="-CAleXuv_7LKCS2JvVPr-9" edge="1">
          <mxGeometry relative="1" as="geometry">
            <mxPoint x="60" y="70" as="targetPoint" />
            <Array as="points">
              <mxPoint x="189" y="70" />
            </Array>
          </mxGeometry>
        </mxCell>
        <mxCell id="-CAleXuv_7LKCS2JvVPr-9" value="b" style="ellipse;whiteSpace=wrap;html=1;rounded=1;glass=0;strokeWidth=1;shadow=0;" parent="WIyWlLk6GJQsqaUBKTNV-1" vertex="1">
          <mxGeometry x="169" y="10" width="40" height="40" as="geometry" />
        </mxCell>
        <mxCell id="-CAleXuv_7LKCS2JvVPr-18" value="YES" style="edgeStyle=orthogonalEdgeStyle;rounded=0;orthogonalLoop=1;jettySize=auto;html=1;exitX=0.5;exitY=1;exitDx=0;exitDy=0;entryX=0.5;entryY=0;entryDx=0;entryDy=0;" parent="WIyWlLk6GJQsqaUBKTNV-1" source="-CAleXuv_7LKCS2JvVPr-12" target="WKHt31poT0Ce64Y8X5nI-5" edge="1">
          <mxGeometry relative="1" as="geometry" />
        </mxCell>
        <mxCell id="-CAleXuv_7LKCS2JvVPr-12" value="地方に全件検索ワードが入っていない" style="rhombus;whiteSpace=wrap;html=1;rounded=1;glass=0;strokeWidth=1;shadow=0;" parent="WIyWlLk6GJQsqaUBKTNV-1" vertex="1">
          <mxGeometry x="-315" y="226" width="120" height="84" as="geometry" />
        </mxCell>
        <mxCell id="-CAleXuv_7LKCS2JvVPr-20" value="YES" style="edgeStyle=orthogonalEdgeStyle;rounded=0;orthogonalLoop=1;jettySize=auto;html=1;exitX=0.5;exitY=1;exitDx=0;exitDy=0;entryX=0.5;entryY=0;entryDx=0;entryDy=0;" parent="WIyWlLk6GJQsqaUBKTNV-1" source="-CAleXuv_7LKCS2JvVPr-13" target="WKHt31poT0Ce64Y8X5nI-6" edge="1">
          <mxGeometry relative="1" as="geometry" />
        </mxCell>
        <mxCell id="-CAleXuv_7LKCS2JvVPr-13" value="滞在レベルに全件検索ワードが入っていない" style="rhombus;whiteSpace=wrap;html=1;rounded=1;glass=0;strokeWidth=1;shadow=0;" parent="WIyWlLk6GJQsqaUBKTNV-1" vertex="1">
          <mxGeometry x="-315" y="391" width="120" height="84" as="geometry" />
        </mxCell>
        <mxCell id="-CAleXuv_7LKCS2JvVPr-24" value="YES" style="edgeStyle=orthogonalEdgeStyle;rounded=0;orthogonalLoop=1;jettySize=auto;html=1;exitX=0.5;exitY=1;exitDx=0;exitDy=0;entryX=0.5;entryY=0;entryDx=0;entryDy=0;" parent="WIyWlLk6GJQsqaUBKTNV-1" source="-CAleXuv_7LKCS2JvVPr-14" target="WKHt31poT0Ce64Y8X5nI-11" edge="1">
          <mxGeometry relative="1" as="geometry" />
        </mxCell>
        <mxCell id="-CAleXuv_7LKCS2JvVPr-14" value="訪問日&lt;br&gt;が入力されている？" style="rhombus;whiteSpace=wrap;html=1;rounded=1;glass=0;strokeWidth=1;shadow=0;" parent="WIyWlLk6GJQsqaUBKTNV-1" vertex="1">
          <mxGeometry x="-315" y="546" width="120" height="84" as="geometry" />
        </mxCell>
        <mxCell id="-CAleXuv_7LKCS2JvVPr-15" style="edgeStyle=orthogonalEdgeStyle;rounded=0;orthogonalLoop=1;jettySize=auto;html=1;exitX=0.5;exitY=1;exitDx=0;exitDy=0;entryX=0.5;entryY=0.083;entryDx=0;entryDy=0;entryPerimeter=0;" parent="WIyWlLk6GJQsqaUBKTNV-1" source="echClZm6UsjZQWHw3Wsp-5" target="-CAleXuv_7LKCS2JvVPr-1" edge="1">
          <mxGeometry relative="1" as="geometry" />
        </mxCell>
        <mxCell id="-CAleXuv_7LKCS2JvVPr-29" value="NO" style="edgeStyle=orthogonalEdgeStyle;rounded=0;orthogonalLoop=1;jettySize=auto;html=1;exitX=1;exitY=0.5;exitDx=0;exitDy=0;" parent="WIyWlLk6GJQsqaUBKTNV-1" edge="1">
          <mxGeometry x="-0.5566" relative="1" as="geometry">
            <mxPoint x="-250" y="380" as="targetPoint" />
            <mxPoint x="-195" y="273" as="sourcePoint" />
            <Array as="points">
              <mxPoint x="-175" y="273" />
              <mxPoint x="-175" y="380" />
              <mxPoint x="-250" y="380" />
            </Array>
            <mxPoint as="offset" />
          </mxGeometry>
        </mxCell>
        <mxCell id="-CAleXuv_7LKCS2JvVPr-31" value="NO" style="edgeStyle=orthogonalEdgeStyle;rounded=0;orthogonalLoop=1;jettySize=auto;html=1;exitX=1;exitY=0.5;exitDx=0;exitDy=0;" parent="WIyWlLk6GJQsqaUBKTNV-1" edge="1">
          <mxGeometry x="-0.5566" relative="1" as="geometry">
            <mxPoint x="-251" y="540" as="targetPoint" />
            <mxPoint x="-196" y="433" as="sourcePoint" />
            <Array as="points">
              <mxPoint x="-176" y="433" />
              <mxPoint x="-176" y="540" />
              <mxPoint x="-251" y="540" />
            </Array>
            <mxPoint as="offset" />
          </mxGeometry>
        </mxCell>
        <mxCell id="-CAleXuv_7LKCS2JvVPr-32" value="NO" style="edgeStyle=orthogonalEdgeStyle;rounded=0;orthogonalLoop=1;jettySize=auto;html=1;exitX=1;exitY=0.5;exitDx=0;exitDy=0;" parent="WIyWlLk6GJQsqaUBKTNV-1" edge="1">
          <mxGeometry x="-0.5566" relative="1" as="geometry">
            <mxPoint x="-255" y="696" as="targetPoint" />
            <mxPoint x="-200" y="589" as="sourcePoint" />
            <Array as="points">
              <mxPoint x="-180" y="589" />
              <mxPoint x="-180" y="696" />
              <mxPoint x="-255" y="696" />
            </Array>
            <mxPoint as="offset" />
          </mxGeometry>
        </mxCell>
      </root>
    </mxGraphModel>
  </diagram>
  <diagram name="登録・更新" id="ZZw6gELlXlKMigEMY7qf">
    <mxGraphModel dx="1396" dy="464" grid="1" gridSize="10" guides="1" tooltips="1" connect="1" arrows="1" fold="1" page="1" pageScale="1" pageWidth="827" pageHeight="1169" math="0" shadow="0">
      <root>
        <mxCell id="QEosanfAXODL8fVMZRcG-0" />
        <mxCell id="QEosanfAXODL8fVMZRcG-1" parent="QEosanfAXODL8fVMZRcG-0" />
        <mxCell id="12SrC-kySsXMqnjmC2t3-1" style="edgeStyle=orthogonalEdgeStyle;rounded=0;orthogonalLoop=1;jettySize=auto;html=1;exitX=0.5;exitY=1;exitDx=0;exitDy=0;entryX=0.5;entryY=0;entryDx=0;entryDy=0;" parent="QEosanfAXODL8fVMZRcG-1" source="QEosanfAXODL8fVMZRcG-14" edge="1">
          <mxGeometry relative="1" as="geometry">
            <mxPoint x="224" y="92" as="targetPoint" />
          </mxGeometry>
        </mxCell>
        <mxCell id="QEosanfAXODL8fVMZRcG-14" value="B" style="ellipse;whiteSpace=wrap;html=1;rounded=1;glass=0;strokeWidth=1;shadow=0;" parent="QEosanfAXODL8fVMZRcG-1" vertex="1">
          <mxGeometry x="204" y="22" width="40" height="40" as="geometry" />
        </mxCell>
        <mxCell id="QEosanfAXODL8fVMZRcG-23" value="end" style="ellipse;whiteSpace=wrap;html=1;" parent="QEosanfAXODL8fVMZRcG-1" vertex="1">
          <mxGeometry x="166" y="702" width="120" height="30" as="geometry" />
        </mxCell>
        <mxCell id="QEosanfAXODL8fVMZRcG-54" value="B" style="ellipse;whiteSpace=wrap;html=1;rounded=1;glass=0;strokeWidth=1;shadow=0;" parent="QEosanfAXODL8fVMZRcG-1" vertex="1">
          <mxGeometry x="-154" y="664" width="40" height="40" as="geometry" />
        </mxCell>
        <mxCell id="QEosanfAXODL8fVMZRcG-55" style="edgeStyle=orthogonalEdgeStyle;rounded=0;orthogonalLoop=1;jettySize=auto;html=1;exitX=0.5;exitY=1;exitDx=0;exitDy=0;entryX=0.5;entryY=0;entryDx=0;entryDy=0;" parent="QEosanfAXODL8fVMZRcG-1" target="QEosanfAXODL8fVMZRcG-60" edge="1">
          <mxGeometry relative="1" as="geometry">
            <mxPoint x="-135" y="119" as="sourcePoint" />
          </mxGeometry>
        </mxCell>
        <mxCell id="QEosanfAXODL8fVMZRcG-56" style="edgeStyle=orthogonalEdgeStyle;rounded=0;orthogonalLoop=1;jettySize=auto;html=1;exitX=0.5;exitY=1;exitDx=0;exitDy=0;entryX=0.5;entryY=0;entryDx=0;entryDy=0;" parent="QEosanfAXODL8fVMZRcG-1" source="QEosanfAXODL8fVMZRcG-57" edge="1">
          <mxGeometry relative="1" as="geometry">
            <mxPoint x="-135" y="316" as="targetPoint" />
          </mxGeometry>
        </mxCell>
        <mxCell id="QEosanfAXODL8fVMZRcG-57" value="Postされた都道府県名の入力チェック" style="rounded=1;whiteSpace=wrap;html=1;fontSize=12;glass=0;strokeWidth=1;shadow=0;" parent="QEosanfAXODL8fVMZRcG-1" vertex="1">
          <mxGeometry x="-194" y="249" width="120" height="40" as="geometry" />
        </mxCell>
        <mxCell id="QEosanfAXODL8fVMZRcG-58" value="YES" style="edgeStyle=orthogonalEdgeStyle;rounded=0;orthogonalLoop=1;jettySize=auto;html=1;exitX=0.5;exitY=1;exitDx=0;exitDy=0;entryX=0.5;entryY=0;entryDx=0;entryDy=0;" parent="QEosanfAXODL8fVMZRcG-1" source="QEosanfAXODL8fVMZRcG-60" target="QEosanfAXODL8fVMZRcG-57" edge="1">
          <mxGeometry relative="1" as="geometry" />
        </mxCell>
        <mxCell id="QEosanfAXODL8fVMZRcG-59" value="NO" style="edgeStyle=orthogonalEdgeStyle;rounded=0;orthogonalLoop=1;jettySize=auto;html=1;exitX=1;exitY=0.5;exitDx=0;exitDy=0;entryX=0.5;entryY=0;entryDx=0;entryDy=0;" parent="QEosanfAXODL8fVMZRcG-1" source="QEosanfAXODL8fVMZRcG-60" target="t1Fka5yl8soX7uoaoD-J-0" edge="1">
          <mxGeometry x="-0.7383" y="2" relative="1" as="geometry">
            <mxPoint x="-35" y="610" as="targetPoint" />
            <Array as="points">
              <mxPoint x="15" y="182" />
              <mxPoint x="15" y="520" />
              <mxPoint x="16" y="520" />
            </Array>
            <mxPoint as="offset" />
          </mxGeometry>
        </mxCell>
        <mxCell id="QEosanfAXODL8fVMZRcG-60" value="登録ボタン押下" style="rhombus;whiteSpace=wrap;html=1;rounded=1;glass=0;strokeWidth=1;shadow=0;" parent="QEosanfAXODL8fVMZRcG-1" vertex="1">
          <mxGeometry x="-195" y="140" width="120" height="84" as="geometry" />
        </mxCell>
        <mxCell id="QEosanfAXODL8fVMZRcG-61" style="edgeStyle=orthogonalEdgeStyle;rounded=0;orthogonalLoop=1;jettySize=auto;html=1;exitX=0.5;exitY=1;exitDx=0;exitDy=0;entryX=0.5;entryY=0;entryDx=0;entryDy=0;" parent="QEosanfAXODL8fVMZRcG-1" source="QEosanfAXODL8fVMZRcG-62" edge="1">
          <mxGeometry relative="1" as="geometry">
            <mxPoint x="-135" y="384" as="targetPoint" />
          </mxGeometry>
        </mxCell>
        <mxCell id="QEosanfAXODL8fVMZRcG-62" value="Postされた滞在レベルの入力チェック" style="rounded=1;whiteSpace=wrap;html=1;fontSize=12;glass=0;strokeWidth=1;shadow=0;" parent="QEosanfAXODL8fVMZRcG-1" vertex="1">
          <mxGeometry x="-194" y="317" width="120" height="40" as="geometry" />
        </mxCell>
        <mxCell id="QEosanfAXODL8fVMZRcG-66" style="edgeStyle=orthogonalEdgeStyle;rounded=0;orthogonalLoop=1;jettySize=auto;html=1;exitX=0.5;exitY=1;exitDx=0;exitDy=0;entryX=0.5;entryY=0;entryDx=0;entryDy=0;" parent="QEosanfAXODL8fVMZRcG-1" source="QEosanfAXODL8fVMZRcG-67" edge="1">
          <mxGeometry relative="1" as="geometry">
            <mxPoint x="-135" y="454" as="targetPoint" />
          </mxGeometry>
        </mxCell>
        <mxCell id="QEosanfAXODL8fVMZRcG-67" value="Postされた訪問日の入力チェック" style="rounded=1;whiteSpace=wrap;html=1;fontSize=12;glass=0;strokeWidth=1;shadow=0;" parent="QEosanfAXODL8fVMZRcG-1" vertex="1">
          <mxGeometry x="-194" y="387" width="120" height="40" as="geometry" />
        </mxCell>
        <mxCell id="uqYTlAz_OvehbHSI_07S-3" style="edgeStyle=orthogonalEdgeStyle;rounded=0;orthogonalLoop=1;jettySize=auto;html=1;exitX=0.5;exitY=1;exitDx=0;exitDy=0;entryX=0.5;entryY=0;entryDx=0;entryDy=0;" parent="QEosanfAXODL8fVMZRcG-1" source="QEosanfAXODL8fVMZRcG-69" target="uqYTlAz_OvehbHSI_07S-2" edge="1">
          <mxGeometry relative="1" as="geometry" />
        </mxCell>
        <mxCell id="QEosanfAXODL8fVMZRcG-69" value="Postされた訪問理由の入力チェック" style="rounded=1;whiteSpace=wrap;html=1;fontSize=12;glass=0;strokeWidth=1;shadow=0;" parent="QEosanfAXODL8fVMZRcG-1" vertex="1">
          <mxGeometry x="-194" y="457" width="120" height="40" as="geometry" />
        </mxCell>
        <mxCell id="QEosanfAXODL8fVMZRcG-70" value="&lt;div style=&quot;font-size: 10px;&quot;&gt;&lt;font style=&quot;font-size: 10px;&quot;&gt;空白でないか&lt;br&gt;&lt;/font&gt;&lt;/div&gt;&lt;div style=&quot;font-size: 10px;&quot;&gt;&lt;font style=&quot;font-size: 10px;&quot;&gt;正しい都道府県名であるか&lt;/font&gt;&lt;/div&gt;&lt;div style=&quot;font-size: 10px;&quot;&gt;&lt;span style=&quot;&quot;&gt;&lt;font style=&quot;font-size: 10px;&quot;&gt;地方が入力されていないか&lt;/font&gt;&lt;/span&gt;&lt;/div&gt;&lt;div style=&quot;font-size: 10px;&quot;&gt;&lt;b style=&quot;border-color: var(--border-color);&quot;&gt;&lt;font style=&quot;border-color: var(--border-color);&quot; color=&quot;#ea6b66&quot;&gt;(新規登録時)存在しない都道府県名か&lt;/font&gt;&lt;/b&gt;&lt;br&gt;&lt;/div&gt;&lt;div style=&quot;font-size: 10px;&quot;&gt;&lt;b style=&quot;border-color: var(--border-color);&quot;&gt;&lt;font style=&quot;border-color: var(--border-color);&quot; color=&quot;#ea6b66&quot;&gt;&lt;b style=&quot;border-color: var(--border-color); color: rgb(0, 0, 0);&quot;&gt;&lt;font style=&quot;border-color: var(--border-color);&quot; color=&quot;#ea6b66&quot;&gt;(更新時)存在する都道府県名か&lt;/font&gt;&lt;/b&gt;&lt;br&gt;&lt;/font&gt;&lt;/b&gt;&lt;/div&gt;" style="shape=callout;whiteSpace=wrap;html=1;perimeter=calloutPerimeter;position2=0.55;size=30;position=0.1;fillColor=#f8cecc;strokeColor=#b85450;rounded=1;rotation=0;direction=south;" parent="QEosanfAXODL8fVMZRcG-1" vertex="1">
          <mxGeometry x="-74" y="207" width="170" height="110" as="geometry" />
        </mxCell>
        <mxCell id="t1Fka5yl8soX7uoaoD-J-0" value="ｂ" style="ellipse;whiteSpace=wrap;html=1;rounded=1;glass=0;strokeWidth=1;shadow=0;" parent="QEosanfAXODL8fVMZRcG-1" vertex="1">
          <mxGeometry x="-4" y="666" width="40" height="40" as="geometry" />
        </mxCell>
        <mxCell id="t1Fka5yl8soX7uoaoD-J-4" value="&lt;div style=&quot;font-size: 10px;&quot;&gt;&lt;div&gt;空白でないか&lt;br&gt;&lt;/div&gt;&lt;div&gt;正しい滞在レベルであるか&lt;/div&gt;&lt;/div&gt;" style="shape=callout;whiteSpace=wrap;html=1;perimeter=calloutPerimeter;position2=0;size=30;position=0.1;fillColor=#f8cecc;strokeColor=#b85450;rounded=1;rotation=0;direction=south;" parent="QEosanfAXODL8fVMZRcG-1" vertex="1">
          <mxGeometry x="-70" y="331.5" width="170" height="65.5" as="geometry" />
        </mxCell>
        <mxCell id="t1Fka5yl8soX7uoaoD-J-5" value="&lt;div style=&quot;font-size: 10px;&quot;&gt;&lt;div&gt;空白でないか&lt;br&gt;&lt;/div&gt;&lt;div&gt;正しい日付であるか&lt;/div&gt;&lt;div&gt;存在する日付であるか&lt;/div&gt;&lt;/div&gt;" style="shape=callout;whiteSpace=wrap;html=1;perimeter=calloutPerimeter;position2=0;size=30;position=0.1;fillColor=#f8cecc;strokeColor=#b85450;rounded=1;rotation=0;direction=south;" parent="QEosanfAXODL8fVMZRcG-1" vertex="1">
          <mxGeometry x="-70" y="411.5" width="170" height="65.5" as="geometry" />
        </mxCell>
        <mxCell id="t1Fka5yl8soX7uoaoD-J-6" value="&lt;div style=&quot;font-size: 10px;&quot;&gt;&lt;div&gt;空白でないか&lt;br&gt;&lt;/div&gt;&lt;div&gt;文字数が255文字&lt;span style=&quot;background-color: initial;&quot;&gt;以内&lt;/span&gt;&lt;/div&gt;&lt;div&gt;&lt;span style=&quot;background-color: initial;&quot;&gt;であるか&lt;/span&gt;&lt;/div&gt;&lt;/div&gt;" style="shape=callout;whiteSpace=wrap;html=1;perimeter=calloutPerimeter;position2=0;size=30;position=0.1;fillColor=#f8cecc;strokeColor=#b85450;rounded=1;rotation=0;direction=south;" parent="QEosanfAXODL8fVMZRcG-1" vertex="1">
          <mxGeometry x="-70" y="491.5" width="170" height="65.5" as="geometry" />
        </mxCell>
        <mxCell id="V5W8Pz4_eonzC4zBpt4i-5" style="edgeStyle=orthogonalEdgeStyle;rounded=0;orthogonalLoop=1;jettySize=auto;html=1;exitX=0.5;exitY=1;exitDx=0;exitDy=0;" parent="QEosanfAXODL8fVMZRcG-1" edge="1">
          <mxGeometry relative="1" as="geometry">
            <mxPoint x="230" y="520" as="targetPoint" />
            <mxPoint x="394" y="61" as="sourcePoint" />
            <Array as="points">
              <mxPoint x="394" y="246" />
              <mxPoint x="395" y="246" />
              <mxPoint x="395" y="520" />
            </Array>
          </mxGeometry>
        </mxCell>
        <mxCell id="12SrC-kySsXMqnjmC2t3-0" value="a" style="ellipse;whiteSpace=wrap;html=1;rounded=1;glass=0;strokeWidth=1;shadow=0;" parent="QEosanfAXODL8fVMZRcG-1" vertex="1">
          <mxGeometry x="374" y="22" width="40" height="40" as="geometry" />
        </mxCell>
        <mxCell id="lcPlNdqDMobRAyZPn_cO-1" style="edgeStyle=orthogonalEdgeStyle;rounded=0;orthogonalLoop=1;jettySize=auto;html=1;exitX=0.5;exitY=1;exitDx=0;exitDy=0;entryX=0.5;entryY=0;entryDx=0;entryDy=0;" parent="QEosanfAXODL8fVMZRcG-1" source="lcPlNdqDMobRAyZPn_cO-2" edge="1">
          <mxGeometry relative="1" as="geometry">
            <mxPoint x="225" y="265" as="targetPoint" />
          </mxGeometry>
        </mxCell>
        <mxCell id="lcPlNdqDMobRAyZPn_cO-2" value="トランザクション" style="rounded=1;whiteSpace=wrap;html=1;fontSize=12;glass=0;strokeWidth=1;shadow=0;" parent="QEosanfAXODL8fVMZRcG-1" vertex="1">
          <mxGeometry x="166" y="198" width="120" height="40" as="geometry" />
        </mxCell>
        <mxCell id="lcPlNdqDMobRAyZPn_cO-3" value="YES" style="edgeStyle=orthogonalEdgeStyle;rounded=0;orthogonalLoop=1;jettySize=auto;html=1;exitX=0.5;exitY=1;exitDx=0;exitDy=0;entryX=0.5;entryY=0;entryDx=0;entryDy=0;" parent="QEosanfAXODL8fVMZRcG-1" source="lcPlNdqDMobRAyZPn_cO-5" target="lcPlNdqDMobRAyZPn_cO-2" edge="1">
          <mxGeometry relative="1" as="geometry" />
        </mxCell>
        <mxCell id="lcPlNdqDMobRAyZPn_cO-4" value="NO" style="edgeStyle=orthogonalEdgeStyle;rounded=0;orthogonalLoop=1;jettySize=auto;html=1;exitX=1;exitY=0.5;exitDx=0;exitDy=0;" parent="QEosanfAXODL8fVMZRcG-1" source="lcPlNdqDMobRAyZPn_cO-5" edge="1">
          <mxGeometry relative="1" as="geometry">
            <mxPoint x="230" y="520" as="targetPoint" />
            <Array as="points">
              <mxPoint x="306" y="131" />
              <mxPoint x="306" y="520" />
            </Array>
          </mxGeometry>
        </mxCell>
        <mxCell id="lcPlNdqDMobRAyZPn_cO-5" value="入力チェックOK?" style="rhombus;whiteSpace=wrap;html=1;rounded=1;glass=0;strokeWidth=1;shadow=0;" parent="QEosanfAXODL8fVMZRcG-1" vertex="1">
          <mxGeometry x="165" y="89" width="120" height="84" as="geometry" />
        </mxCell>
        <mxCell id="lcPlNdqDMobRAyZPn_cO-6" style="edgeStyle=orthogonalEdgeStyle;rounded=0;orthogonalLoop=1;jettySize=auto;html=1;exitX=0.5;exitY=1;exitDx=0;exitDy=0;entryX=0.5;entryY=0;entryDx=0;entryDy=0;" parent="QEosanfAXODL8fVMZRcG-1" source="lcPlNdqDMobRAyZPn_cO-7" edge="1">
          <mxGeometry relative="1" as="geometry">
            <mxPoint x="225" y="435" as="targetPoint" />
          </mxGeometry>
        </mxCell>
        <mxCell id="lcPlNdqDMobRAyZPn_cO-7" value="記録情報登録SQLの実行" style="rounded=1;whiteSpace=wrap;html=1;fontSize=12;glass=0;strokeWidth=1;shadow=0;" parent="QEosanfAXODL8fVMZRcG-1" vertex="1">
          <mxGeometry x="166" y="368" width="120" height="40" as="geometry" />
        </mxCell>
        <mxCell id="V5W8Pz4_eonzC4zBpt4i-4" style="edgeStyle=orthogonalEdgeStyle;rounded=0;orthogonalLoop=1;jettySize=auto;html=1;exitX=0.5;exitY=1;exitDx=0;exitDy=0;entryX=0.5;entryY=0;entryDx=0;entryDy=0;" parent="QEosanfAXODL8fVMZRcG-1" source="lcPlNdqDMobRAyZPn_cO-9" target="V5W8Pz4_eonzC4zBpt4i-1" edge="1">
          <mxGeometry relative="1" as="geometry" />
        </mxCell>
        <mxCell id="lcPlNdqDMobRAyZPn_cO-9" value="コミット" style="rounded=1;whiteSpace=wrap;html=1;fontSize=12;glass=0;strokeWidth=1;shadow=0;" parent="QEosanfAXODL8fVMZRcG-1" vertex="1">
          <mxGeometry x="166" y="438" width="120" height="40" as="geometry" />
        </mxCell>
        <mxCell id="V5W8Pz4_eonzC4zBpt4i-0" style="edgeStyle=orthogonalEdgeStyle;rounded=0;orthogonalLoop=1;jettySize=auto;html=1;exitX=0.5;exitY=1;exitDx=0;exitDy=0;entryX=0.5;entryY=0;entryDx=0;entryDy=0;" parent="QEosanfAXODL8fVMZRcG-1" source="V5W8Pz4_eonzC4zBpt4i-1" edge="1">
          <mxGeometry relative="1" as="geometry">
            <mxPoint x="225" y="625" as="targetPoint" />
          </mxGeometry>
        </mxCell>
        <mxCell id="V5W8Pz4_eonzC4zBpt4i-1" value="メッセージ表示" style="rounded=1;whiteSpace=wrap;html=1;fontSize=12;glass=0;strokeWidth=1;shadow=0;" parent="QEosanfAXODL8fVMZRcG-1" vertex="1">
          <mxGeometry x="166" y="558" width="120" height="40" as="geometry" />
        </mxCell>
        <mxCell id="V5W8Pz4_eonzC4zBpt4i-3" style="edgeStyle=orthogonalEdgeStyle;rounded=0;orthogonalLoop=1;jettySize=auto;html=1;exitX=0.5;exitY=1;exitDx=0;exitDy=0;entryX=0.5;entryY=0;entryDx=0;entryDy=0;" parent="QEosanfAXODL8fVMZRcG-1" source="V5W8Pz4_eonzC4zBpt4i-2" target="QEosanfAXODL8fVMZRcG-23" edge="1">
          <mxGeometry relative="1" as="geometry" />
        </mxCell>
        <mxCell id="V5W8Pz4_eonzC4zBpt4i-2" value="各入力項目表示" style="rounded=1;whiteSpace=wrap;html=1;fontSize=12;glass=0;strokeWidth=1;shadow=0;" parent="QEosanfAXODL8fVMZRcG-1" vertex="1">
          <mxGeometry x="166" y="628" width="120" height="40" as="geometry" />
        </mxCell>
        <mxCell id="cFXjZCLONduesQTAsHCw-1" value="データベース接続" style="rounded=1;whiteSpace=wrap;html=1;fontSize=12;glass=0;strokeWidth=1;shadow=0;" parent="QEosanfAXODL8fVMZRcG-1" vertex="1">
          <mxGeometry x="-605" y="80" width="120" height="40" as="geometry" />
        </mxCell>
        <mxCell id="cFXjZCLONduesQTAsHCw-2" value="" style="edgeStyle=orthogonalEdgeStyle;rounded=0;orthogonalLoop=1;jettySize=auto;html=1;" parent="QEosanfAXODL8fVMZRcG-1" source="cFXjZCLONduesQTAsHCw-3" target="cFXjZCLONduesQTAsHCw-1" edge="1">
          <mxGeometry relative="1" as="geometry">
            <Array as="points">
              <mxPoint x="-535" y="80" />
              <mxPoint x="-535" y="80" />
            </Array>
          </mxGeometry>
        </mxCell>
        <mxCell id="cFXjZCLONduesQTAsHCw-3" value="start" style="ellipse;whiteSpace=wrap;html=1;" parent="QEosanfAXODL8fVMZRcG-1" vertex="1">
          <mxGeometry x="-605" y="30" width="120" height="30" as="geometry" />
        </mxCell>
        <mxCell id="cFXjZCLONduesQTAsHCw-4" style="edgeStyle=orthogonalEdgeStyle;rounded=0;orthogonalLoop=1;jettySize=auto;html=1;exitX=0.5;exitY=1;exitDx=0;exitDy=0;entryX=0.5;entryY=0;entryDx=0;entryDy=0;" parent="QEosanfAXODL8fVMZRcG-1" target="cFXjZCLONduesQTAsHCw-5" edge="1">
          <mxGeometry relative="1" as="geometry">
            <mxPoint x="-545" y="119" as="sourcePoint" />
          </mxGeometry>
        </mxCell>
        <mxCell id="cFXjZCLONduesQTAsHCw-22" value="YES" style="edgeStyle=orthogonalEdgeStyle;rounded=0;orthogonalLoop=1;jettySize=auto;html=1;exitX=0.5;exitY=1;exitDx=0;exitDy=0;entryX=0.5;entryY=0;entryDx=0;entryDy=0;" parent="QEosanfAXODL8fVMZRcG-1" source="cFXjZCLONduesQTAsHCw-5" target="cFXjZCLONduesQTAsHCw-7" edge="1">
          <mxGeometry relative="1" as="geometry" />
        </mxCell>
        <mxCell id="cFXjZCLONduesQTAsHCw-24" value="NO" style="edgeStyle=orthogonalEdgeStyle;rounded=0;orthogonalLoop=1;jettySize=auto;html=1;exitX=1;exitY=0.5;exitDx=0;exitDy=0;entryX=0.5;entryY=0;entryDx=0;entryDy=0;" parent="QEosanfAXODL8fVMZRcG-1" source="cFXjZCLONduesQTAsHCw-5" target="cFXjZCLONduesQTAsHCw-23" edge="1">
          <mxGeometry x="-0.6115" relative="1" as="geometry">
            <mxPoint x="-270" y="180" as="targetPoint" />
            <Array as="points">
              <mxPoint x="-284" y="180" />
            </Array>
            <mxPoint as="offset" />
          </mxGeometry>
        </mxCell>
        <mxCell id="cFXjZCLONduesQTAsHCw-5" value="Post通信か" style="rhombus;whiteSpace=wrap;html=1;rounded=1;glass=0;strokeWidth=1;shadow=0;fillColor=#f8cecc;strokeColor=#b85450;" parent="QEosanfAXODL8fVMZRcG-1" vertex="1">
          <mxGeometry x="-605" y="138" width="120" height="84" as="geometry" />
        </mxCell>
        <mxCell id="cFXjZCLONduesQTAsHCw-6" value="A" style="ellipse;whiteSpace=wrap;html=1;rounded=1;glass=0;strokeWidth=1;shadow=0;" parent="QEosanfAXODL8fVMZRcG-1" vertex="1">
          <mxGeometry x="-155" y="82" width="40" height="40" as="geometry" />
        </mxCell>
        <mxCell id="cFXjZCLONduesQTAsHCw-19" value="NO" style="edgeStyle=orthogonalEdgeStyle;rounded=0;orthogonalLoop=1;jettySize=auto;html=1;exitX=1;exitY=0.5;exitDx=0;exitDy=0;" parent="QEosanfAXODL8fVMZRcG-1" source="cFXjZCLONduesQTAsHCw-7" edge="1">
          <mxGeometry relative="1" as="geometry">
            <mxPoint x="-540" y="670" as="targetPoint" />
            <Array as="points">
              <mxPoint x="-320" y="280" />
            </Array>
          </mxGeometry>
        </mxCell>
        <mxCell id="cFXjZCLONduesQTAsHCw-20" value="YES" style="edgeStyle=orthogonalEdgeStyle;rounded=0;orthogonalLoop=1;jettySize=auto;html=1;exitX=0.5;exitY=1;exitDx=0;exitDy=0;entryX=0.5;entryY=0;entryDx=0;entryDy=0;" parent="QEosanfAXODL8fVMZRcG-1" source="cFXjZCLONduesQTAsHCw-7" target="cFXjZCLONduesQTAsHCw-8" edge="1">
          <mxGeometry relative="1" as="geometry" />
        </mxCell>
        <mxCell id="cFXjZCLONduesQTAsHCw-7" value="記録検索画面の編集ボタン押下" style="rhombus;whiteSpace=wrap;html=1;rounded=1;glass=0;strokeWidth=1;shadow=0;fillColor=#f8cecc;strokeColor=#b85450;" parent="QEosanfAXODL8fVMZRcG-1" vertex="1">
          <mxGeometry x="-605" y="238" width="120" height="84" as="geometry" />
        </mxCell>
        <mxCell id="cFXjZCLONduesQTAsHCw-21" style="edgeStyle=orthogonalEdgeStyle;rounded=0;orthogonalLoop=1;jettySize=auto;html=1;exitX=0.5;exitY=1;exitDx=0;exitDy=0;entryX=0.5;entryY=0;entryDx=0;entryDy=0;" parent="QEosanfAXODL8fVMZRcG-1" source="cFXjZCLONduesQTAsHCw-8" target="cFXjZCLONduesQTAsHCw-9" edge="1">
          <mxGeometry relative="1" as="geometry" />
        </mxCell>
        <mxCell id="cFXjZCLONduesQTAsHCw-8" value="POSTされた都道府県名の入力チェック" style="rounded=1;whiteSpace=wrap;html=1;fontSize=12;glass=0;strokeWidth=1;shadow=0;fillColor=#f8cecc;strokeColor=#b85450;" parent="QEosanfAXODL8fVMZRcG-1" vertex="1">
          <mxGeometry x="-604" y="350" width="120" height="40" as="geometry" />
        </mxCell>
        <mxCell id="cFXjZCLONduesQTAsHCw-14" value="NO" style="edgeStyle=orthogonalEdgeStyle;rounded=0;orthogonalLoop=1;jettySize=auto;html=1;exitX=1;exitY=0.5;exitDx=0;exitDy=0;entryX=0.5;entryY=0;entryDx=0;entryDy=0;" parent="QEosanfAXODL8fVMZRcG-1" source="cFXjZCLONduesQTAsHCw-9" target="cFXjZCLONduesQTAsHCw-11" edge="1">
          <mxGeometry relative="1" as="geometry">
            <mxPoint x="-380" y="460" as="targetPoint" />
            <Array as="points">
              <mxPoint x="-394" y="460" />
            </Array>
          </mxGeometry>
        </mxCell>
        <mxCell id="cFXjZCLONduesQTAsHCw-15" value="YES" style="edgeStyle=orthogonalEdgeStyle;rounded=0;orthogonalLoop=1;jettySize=auto;html=1;exitX=0.5;exitY=1;exitDx=0;exitDy=0;entryX=0.5;entryY=0;entryDx=0;entryDy=0;" parent="QEosanfAXODL8fVMZRcG-1" source="cFXjZCLONduesQTAsHCw-9" target="cFXjZCLONduesQTAsHCw-10" edge="1">
          <mxGeometry relative="1" as="geometry" />
        </mxCell>
        <mxCell id="cFXjZCLONduesQTAsHCw-9" value="入力チェックOK?" style="rhombus;whiteSpace=wrap;html=1;rounded=1;glass=0;strokeWidth=1;shadow=0;fillColor=#f8cecc;strokeColor=#b85450;" parent="QEosanfAXODL8fVMZRcG-1" vertex="1">
          <mxGeometry x="-605" y="418" width="120" height="84" as="geometry" />
        </mxCell>
        <mxCell id="cFXjZCLONduesQTAsHCw-17" style="edgeStyle=orthogonalEdgeStyle;rounded=0;orthogonalLoop=1;jettySize=auto;html=1;exitX=0.5;exitY=1;exitDx=0;exitDy=0;entryX=0.5;entryY=0;entryDx=0;entryDy=0;" parent="QEosanfAXODL8fVMZRcG-1" source="cFXjZCLONduesQTAsHCw-10" target="cFXjZCLONduesQTAsHCw-16" edge="1">
          <mxGeometry relative="1" as="geometry" />
        </mxCell>
        <mxCell id="cFXjZCLONduesQTAsHCw-10" value="記録情報取得SQLの実行" style="rounded=1;whiteSpace=wrap;html=1;fontSize=12;glass=0;strokeWidth=1;shadow=0;fillColor=#f8cecc;strokeColor=#b85450;" parent="QEosanfAXODL8fVMZRcG-1" vertex="1">
          <mxGeometry x="-604" y="530" width="120" height="40" as="geometry" />
        </mxCell>
        <mxCell id="cFXjZCLONduesQTAsHCw-13" style="edgeStyle=orthogonalEdgeStyle;rounded=0;orthogonalLoop=1;jettySize=auto;html=1;exitX=0.5;exitY=1;exitDx=0;exitDy=0;entryX=0.5;entryY=0;entryDx=0;entryDy=0;" parent="QEosanfAXODL8fVMZRcG-1" source="cFXjZCLONduesQTAsHCw-11" target="cFXjZCLONduesQTAsHCw-12" edge="1">
          <mxGeometry relative="1" as="geometry" />
        </mxCell>
        <mxCell id="cFXjZCLONduesQTAsHCw-11" value="エラー画面表示" style="rounded=1;whiteSpace=wrap;html=1;fontSize=12;glass=0;strokeWidth=1;shadow=0;fillColor=#f8cecc;strokeColor=#b85450;" parent="QEosanfAXODL8fVMZRcG-1" vertex="1">
          <mxGeometry x="-454" y="530" width="120" height="40" as="geometry" />
        </mxCell>
        <mxCell id="cFXjZCLONduesQTAsHCw-12" value="end" style="ellipse;whiteSpace=wrap;html=1;fillColor=#f8cecc;strokeColor=#b85450;" parent="QEosanfAXODL8fVMZRcG-1" vertex="1">
          <mxGeometry x="-454" y="612" width="120" height="30" as="geometry" />
        </mxCell>
        <mxCell id="cFXjZCLONduesQTAsHCw-16" value="B" style="ellipse;whiteSpace=wrap;html=1;rounded=1;glass=0;strokeWidth=1;shadow=0;" parent="QEosanfAXODL8fVMZRcG-1" vertex="1">
          <mxGeometry x="-564" y="674" width="40" height="40" as="geometry" />
        </mxCell>
        <mxCell id="cFXjZCLONduesQTAsHCw-23" value="a" style="ellipse;whiteSpace=wrap;html=1;rounded=1;glass=0;strokeWidth=1;shadow=0;fontStyle=1" parent="QEosanfAXODL8fVMZRcG-1" vertex="1">
          <mxGeometry x="-304" y="674" width="40" height="40" as="geometry" />
        </mxCell>
        <mxCell id="cFXjZCLONduesQTAsHCw-25" value="&lt;div style=&quot;font-size: 10px;&quot;&gt;&lt;font style=&quot;font-size: 10px;&quot;&gt;空白でないか&lt;br&gt;&lt;/font&gt;&lt;/div&gt;&lt;div style=&quot;font-size: 10px;&quot;&gt;&lt;font style=&quot;font-size: 10px;&quot;&gt;正しい都道府県名であるか&lt;/font&gt;&lt;/div&gt;&lt;div style=&quot;font-size: 10px;&quot;&gt;&lt;span style=&quot;&quot;&gt;&lt;font style=&quot;font-size: 10px;&quot;&gt;地方が入力されていないか&lt;/font&gt;&lt;/span&gt;&lt;/div&gt;&lt;div style=&quot;font-size: 10px;&quot;&gt;&lt;font style=&quot;font-size: 10px;&quot;&gt;&lt;b&gt;存在する記録情報か&lt;/b&gt;&lt;/font&gt;&lt;/div&gt;" style="shape=callout;whiteSpace=wrap;html=1;perimeter=calloutPerimeter;position2=0;size=30;position=0.1;fillColor=#f8cecc;strokeColor=#b85450;rounded=1;rotation=0;direction=south;" parent="QEosanfAXODL8fVMZRcG-1" vertex="1">
          <mxGeometry x="-480" y="361" width="170" height="80" as="geometry" />
        </mxCell>
        <mxCell id="cFXjZCLONduesQTAsHCw-28" value="YES" style="edgeStyle=orthogonalEdgeStyle;rounded=0;orthogonalLoop=1;jettySize=auto;html=1;exitX=0.5;exitY=1;exitDx=0;exitDy=0;entryX=0.5;entryY=0;entryDx=0;entryDy=0;" parent="QEosanfAXODL8fVMZRcG-1" source="cFXjZCLONduesQTAsHCw-27" target="lcPlNdqDMobRAyZPn_cO-7" edge="1">
          <mxGeometry relative="1" as="geometry" />
        </mxCell>
        <mxCell id="cFXjZCLONduesQTAsHCw-34" value="NO" style="edgeStyle=orthogonalEdgeStyle;rounded=0;orthogonalLoop=1;jettySize=auto;html=1;exitX=1;exitY=0.5;exitDx=0;exitDy=0;entryX=0.5;entryY=0;entryDx=0;entryDy=0;" parent="QEosanfAXODL8fVMZRcG-1" source="cFXjZCLONduesQTAsHCw-27" target="cFXjZCLONduesQTAsHCw-33" edge="1">
          <mxGeometry relative="1" as="geometry" />
        </mxCell>
        <mxCell id="cFXjZCLONduesQTAsHCw-27" value="新規登録？" style="rhombus;whiteSpace=wrap;html=1;rounded=1;glass=0;strokeWidth=1;shadow=0;fillColor=#f8cecc;strokeColor=#B85450;" parent="QEosanfAXODL8fVMZRcG-1" vertex="1">
          <mxGeometry x="165" y="259" width="120" height="84" as="geometry" />
        </mxCell>
        <mxCell id="cFXjZCLONduesQTAsHCw-32" style="edgeStyle=orthogonalEdgeStyle;rounded=0;orthogonalLoop=1;jettySize=auto;html=1;exitX=0.5;exitY=1;exitDx=0;exitDy=0;" parent="QEosanfAXODL8fVMZRcG-1" source="cFXjZCLONduesQTAsHCw-31" edge="1">
          <mxGeometry relative="1" as="geometry">
            <mxPoint x="230" y="520.6666870117188" as="targetPoint" />
            <Array as="points">
              <mxPoint x="454" y="521" />
            </Array>
          </mxGeometry>
        </mxCell>
        <mxCell id="cFXjZCLONduesQTAsHCw-31" value="ｂ" style="ellipse;whiteSpace=wrap;html=1;rounded=1;glass=0;strokeWidth=1;shadow=0;" parent="QEosanfAXODL8fVMZRcG-1" vertex="1">
          <mxGeometry x="434" y="22" width="40" height="40" as="geometry" />
        </mxCell>
        <mxCell id="cFXjZCLONduesQTAsHCw-36" style="edgeStyle=orthogonalEdgeStyle;rounded=0;orthogonalLoop=1;jettySize=auto;html=1;exitX=0.5;exitY=1;exitDx=0;exitDy=0;" parent="QEosanfAXODL8fVMZRcG-1" edge="1">
          <mxGeometry relative="1" as="geometry">
            <mxPoint x="230" y="420" as="targetPoint" />
            <mxPoint x="365" y="408" as="sourcePoint" />
            <Array as="points">
              <mxPoint x="365" y="420" />
            </Array>
          </mxGeometry>
        </mxCell>
        <mxCell id="cFXjZCLONduesQTAsHCw-33" value="記録情報更新SQLの実行" style="rounded=1;whiteSpace=wrap;html=1;fontSize=12;glass=0;strokeWidth=1;shadow=0;fillColor=#f8cecc;strokeColor=#B85450;" parent="QEosanfAXODL8fVMZRcG-1" vertex="1">
          <mxGeometry x="306" y="368" width="120" height="40" as="geometry" />
        </mxCell>
        <mxCell id="cFXjZCLONduesQTAsHCw-38" value="&lt;div style=&quot;font-size: 10px;&quot;&gt;&lt;div style=&quot;border-color: var(--border-color);&quot;&gt;&lt;b style=&quot;border-color: var(--border-color);&quot;&gt;&lt;font style=&quot;border-color: var(--border-color);&quot; color=&quot;#ea6b66&quot;&gt;(新規登録時)都道府県名入力可&lt;/font&gt;&lt;/b&gt;&lt;br style=&quot;border-color: var(--border-color);&quot;&gt;&lt;/div&gt;&lt;div style=&quot;border-color: var(--border-color);&quot;&gt;&lt;b style=&quot;border-color: var(--border-color);&quot;&gt;&lt;font style=&quot;border-color: var(--border-color);&quot; color=&quot;#ea6b66&quot;&gt;(更新時)都道府県名入力不可&lt;/font&gt;&lt;/b&gt;&lt;/div&gt;&lt;/div&gt;" style="shape=callout;whiteSpace=wrap;html=1;perimeter=calloutPerimeter;position2=0;size=30;position=0.1;fillColor=#f8cecc;strokeColor=#b85450;rounded=1;rotation=0;direction=south;" parent="QEosanfAXODL8fVMZRcG-1" vertex="1">
          <mxGeometry x="290" y="644.5" width="170" height="65.5" as="geometry" />
        </mxCell>
        <mxCell id="cFXjZCLONduesQTAsHCw-39" value="更新処理" style="rhombus;whiteSpace=wrap;html=1;rounded=1;glass=0;strokeWidth=1;shadow=0;fillColor=#f8cecc;strokeColor=#b85450;" parent="QEosanfAXODL8fVMZRcG-1" vertex="1">
          <mxGeometry x="-788" y="58" width="120" height="84" as="geometry" />
        </mxCell>
        <mxCell id="uqYTlAz_OvehbHSI_07S-4" style="edgeStyle=orthogonalEdgeStyle;rounded=0;orthogonalLoop=1;jettySize=auto;html=1;exitX=0.5;exitY=1;exitDx=0;exitDy=0;entryX=0.5;entryY=0;entryDx=0;entryDy=0;" parent="QEosanfAXODL8fVMZRcG-1" source="uqYTlAz_OvehbHSI_07S-2" target="QEosanfAXODL8fVMZRcG-54" edge="1">
          <mxGeometry relative="1" as="geometry" />
        </mxCell>
        <mxCell id="uqYTlAz_OvehbHSI_07S-2" value="都道府県に合った地方を決定する。" style="rounded=1;whiteSpace=wrap;html=1;fontSize=12;glass=0;strokeWidth=1;shadow=0;" parent="QEosanfAXODL8fVMZRcG-1" vertex="1">
          <mxGeometry x="-194" y="554" width="120" height="40" as="geometry" />
        </mxCell>
      </root>
    </mxGraphModel>
  </diagram>
  <diagram id="1GHYFsV_sbwx7NdathCc" name="ログイン・ログアウト">
    <mxGraphModel dx="1861" dy="1628" grid="1" gridSize="10" guides="1" tooltips="1" connect="1" arrows="1" fold="1" page="1" pageScale="1" pageWidth="827" pageHeight="1169" math="0" shadow="0">
      <root>
        <mxCell id="0" />
        <mxCell id="1" parent="0" />
        <mxCell id="CthMdE5Yw4Z3oLCxMUDl-3" value="start" style="ellipse;whiteSpace=wrap;html=1;" parent="1" vertex="1">
          <mxGeometry x="-605" y="30" width="120" height="30" as="geometry" />
        </mxCell>
        <mxCell id="CthMdE5Yw4Z3oLCxMUDl-4" style="edgeStyle=orthogonalEdgeStyle;rounded=0;orthogonalLoop=1;jettySize=auto;html=1;exitX=0.5;exitY=1;exitDx=0;exitDy=0;entryX=0.5;entryY=0;entryDx=0;entryDy=0;" parent="1" edge="1">
          <mxGeometry relative="1" as="geometry">
            <mxPoint x="-545" y="61" as="sourcePoint" />
            <mxPoint x="-545" y="80" as="targetPoint" />
          </mxGeometry>
        </mxCell>
        <mxCell id="CthMdE5Yw4Z3oLCxMUDl-5" value="YES" style="edgeStyle=orthogonalEdgeStyle;rounded=0;orthogonalLoop=1;jettySize=auto;html=1;exitX=0.5;exitY=1;exitDx=0;exitDy=0;entryX=0.5;entryY=0;entryDx=0;entryDy=0;" parent="1" source="CthMdE5Yw4Z3oLCxMUDl-6" edge="1">
          <mxGeometry relative="1" as="geometry">
            <mxPoint x="-545" y="180" as="targetPoint" />
          </mxGeometry>
        </mxCell>
        <mxCell id="MxYGF3H9ToUxIRv7LrTh-2" style="edgeStyle=orthogonalEdgeStyle;rounded=0;orthogonalLoop=1;jettySize=auto;html=1;exitX=0.5;exitY=1;exitDx=0;exitDy=0;entryX=0.5;entryY=0;entryDx=0;entryDy=0;" parent="1" source="CthMdE5Yw4Z3oLCxMUDl-6" target="MxYGF3H9ToUxIRv7LrTh-1" edge="1">
          <mxGeometry relative="1" as="geometry" />
        </mxCell>
        <mxCell id="MxYGF3H9ToUxIRv7LrTh-10" value="NO" style="edgeStyle=orthogonalEdgeStyle;rounded=0;orthogonalLoop=1;jettySize=auto;html=1;exitX=1;exitY=0.5;exitDx=0;exitDy=0;entryX=0.5;entryY=0;entryDx=0;entryDy=0;" parent="1" source="CthMdE5Yw4Z3oLCxMUDl-6" target="MxYGF3H9ToUxIRv7LrTh-5" edge="1">
          <mxGeometry relative="1" as="geometry">
            <mxPoint x="-545" y="560" as="targetPoint" />
            <Array as="points">
              <mxPoint x="-320" y="122" />
              <mxPoint x="-320" y="580" />
              <mxPoint x="-544" y="580" />
            </Array>
          </mxGeometry>
        </mxCell>
        <mxCell id="CthMdE5Yw4Z3oLCxMUDl-6" value="Post通信か" style="rhombus;whiteSpace=wrap;html=1;rounded=1;glass=0;strokeWidth=1;shadow=0;fillColor=#f8cecc;strokeColor=#b85450;" parent="1" vertex="1">
          <mxGeometry x="-605" y="80" width="120" height="84" as="geometry" />
        </mxCell>
        <mxCell id="CthMdE5Yw4Z3oLCxMUDl-8" value="YES" style="edgeStyle=orthogonalEdgeStyle;rounded=0;orthogonalLoop=1;jettySize=auto;html=1;exitX=0.5;exitY=1;exitDx=0;exitDy=0;entryX=0.5;entryY=0;entryDx=0;entryDy=0;" parent="1" source="CthMdE5Yw4Z3oLCxMUDl-9" target="CthMdE5Yw4Z3oLCxMUDl-11" edge="1">
          <mxGeometry relative="1" as="geometry" />
        </mxCell>
        <mxCell id="MxYGF3H9ToUxIRv7LrTh-8" value="NO" style="edgeStyle=orthogonalEdgeStyle;rounded=0;orthogonalLoop=1;jettySize=auto;html=1;exitX=1;exitY=0.5;exitDx=0;exitDy=0;entryX=0.5;entryY=0;entryDx=0;entryDy=0;" parent="1" source="CthMdE5Yw4Z3oLCxMUDl-9" target="CthMdE5Yw4Z3oLCxMUDl-18" edge="1">
          <mxGeometry relative="1" as="geometry" />
        </mxCell>
        <mxCell id="CthMdE5Yw4Z3oLCxMUDl-9" value="ログイン認証OK?" style="rhombus;whiteSpace=wrap;html=1;rounded=1;glass=0;strokeWidth=1;shadow=0;fillColor=#f8cecc;strokeColor=#b85450;" parent="1" vertex="1">
          <mxGeometry x="-605" y="247" width="120" height="84" as="geometry" />
        </mxCell>
        <mxCell id="CthMdE5Yw4Z3oLCxMUDl-10" style="edgeStyle=orthogonalEdgeStyle;rounded=0;orthogonalLoop=1;jettySize=auto;html=1;exitX=0.5;exitY=1;exitDx=0;exitDy=0;entryX=0.5;entryY=0;entryDx=0;entryDy=0;" parent="1" source="CthMdE5Yw4Z3oLCxMUDl-11" edge="1">
          <mxGeometry relative="1" as="geometry">
            <mxPoint x="-545" y="427" as="targetPoint" />
          </mxGeometry>
        </mxCell>
        <mxCell id="CthMdE5Yw4Z3oLCxMUDl-11" value="ログイン処理" style="rounded=1;whiteSpace=wrap;html=1;fontSize=12;glass=0;strokeWidth=1;shadow=0;fillColor=#f8cecc;strokeColor=#b85450;" parent="1" vertex="1">
          <mxGeometry x="-604" y="359" width="120" height="40" as="geometry" />
        </mxCell>
        <mxCell id="CthMdE5Yw4Z3oLCxMUDl-16" value="検索画面に遷移" style="rounded=1;whiteSpace=wrap;html=1;fontSize=12;glass=0;strokeWidth=1;shadow=0;fillColor=#f8cecc;strokeColor=#b85450;" parent="1" vertex="1">
          <mxGeometry x="-604" y="429" width="120" height="40" as="geometry" />
        </mxCell>
        <mxCell id="MxYGF3H9ToUxIRv7LrTh-9" style="edgeStyle=orthogonalEdgeStyle;rounded=0;orthogonalLoop=1;jettySize=auto;html=1;exitX=0.5;exitY=1;exitDx=0;exitDy=0;entryX=0.5;entryY=0;entryDx=0;entryDy=0;" parent="1" source="CthMdE5Yw4Z3oLCxMUDl-18" target="MxYGF3H9ToUxIRv7LrTh-5" edge="1">
          <mxGeometry relative="1" as="geometry">
            <mxPoint x="-400" y="580" as="targetPoint" />
            <Array as="points">
              <mxPoint x="-400" y="570" />
              <mxPoint x="-544" y="570" />
            </Array>
          </mxGeometry>
        </mxCell>
        <mxCell id="CthMdE5Yw4Z3oLCxMUDl-18" value="エラーメッセージ表示" style="rounded=1;whiteSpace=wrap;html=1;fontSize=12;glass=0;strokeWidth=1;shadow=0;fillColor=#f8cecc;strokeColor=#b85450;" parent="1" vertex="1">
          <mxGeometry x="-460" y="359" width="120" height="40" as="geometry" />
        </mxCell>
        <mxCell id="MxYGF3H9ToUxIRv7LrTh-3" style="edgeStyle=orthogonalEdgeStyle;rounded=0;orthogonalLoop=1;jettySize=auto;html=1;exitX=0.5;exitY=1;exitDx=0;exitDy=0;entryX=0.5;entryY=0;entryDx=0;entryDy=0;" parent="1" source="MxYGF3H9ToUxIRv7LrTh-1" target="CthMdE5Yw4Z3oLCxMUDl-9" edge="1">
          <mxGeometry relative="1" as="geometry" />
        </mxCell>
        <mxCell id="MxYGF3H9ToUxIRv7LrTh-1" value="ログイン認証SQL実行" style="rounded=1;whiteSpace=wrap;html=1;fontSize=12;glass=0;strokeWidth=1;shadow=0;fillColor=#f8cecc;strokeColor=#b85450;" parent="1" vertex="1">
          <mxGeometry x="-604" y="190" width="120" height="40" as="geometry" />
        </mxCell>
        <mxCell id="MxYGF3H9ToUxIRv7LrTh-4" value="" style="edgeStyle=orthogonalEdgeStyle;rounded=0;orthogonalLoop=1;jettySize=auto;html=1;exitX=0.5;exitY=1;exitDx=0;exitDy=0;entryX=0.5;entryY=0;entryDx=0;entryDy=0;" parent="1" source="CthMdE5Yw4Z3oLCxMUDl-16" target="CthMdE5Yw4Z3oLCxMUDl-19" edge="1">
          <mxGeometry relative="1" as="geometry">
            <mxPoint x="-544" y="469" as="sourcePoint" />
            <mxPoint x="-544" y="683" as="targetPoint" />
          </mxGeometry>
        </mxCell>
        <mxCell id="CthMdE5Yw4Z3oLCxMUDl-19" value="end" style="ellipse;whiteSpace=wrap;html=1;fillColor=#f8cecc;strokeColor=#b85450;" parent="1" vertex="1">
          <mxGeometry x="-604" y="514" width="120" height="30" as="geometry" />
        </mxCell>
        <mxCell id="MxYGF3H9ToUxIRv7LrTh-5" value="各入力項目表示" style="rounded=1;whiteSpace=wrap;html=1;fontSize=12;glass=0;strokeWidth=1;shadow=0;fillColor=#f8cecc;strokeColor=#b85450;" parent="1" vertex="1">
          <mxGeometry x="-604" y="600" width="120" height="39" as="geometry" />
        </mxCell>
        <mxCell id="MxYGF3H9ToUxIRv7LrTh-6" value="" style="edgeStyle=orthogonalEdgeStyle;rounded=0;orthogonalLoop=1;jettySize=auto;html=1;exitX=0.5;exitY=1;exitDx=0;exitDy=0;entryX=0.5;entryY=0;entryDx=0;entryDy=0;" parent="1" source="MxYGF3H9ToUxIRv7LrTh-5" target="MxYGF3H9ToUxIRv7LrTh-7" edge="1">
          <mxGeometry relative="1" as="geometry">
            <mxPoint x="-544" y="639" as="sourcePoint" />
            <mxPoint x="-544" y="853" as="targetPoint" />
          </mxGeometry>
        </mxCell>
        <mxCell id="MxYGF3H9ToUxIRv7LrTh-7" value="end" style="ellipse;whiteSpace=wrap;html=1;fillColor=#f8cecc;strokeColor=#b85450;" parent="1" vertex="1">
          <mxGeometry x="-604" y="684" width="120" height="30" as="geometry" />
        </mxCell>
        <mxCell id="LnFKJoCeydz4W25h7Wmq-1" value="ログイン" style="shape=process;whiteSpace=wrap;html=1;backgroundOutline=1;" vertex="1" parent="1">
          <mxGeometry x="-605" y="-60" width="120" height="30" as="geometry" />
        </mxCell>
        <mxCell id="LnFKJoCeydz4W25h7Wmq-2" value="ログアウト" style="shape=process;whiteSpace=wrap;html=1;backgroundOutline=1;" vertex="1" parent="1">
          <mxGeometry x="-155" y="-60" width="120" height="30" as="geometry" />
        </mxCell>
        <mxCell id="LnFKJoCeydz4W25h7Wmq-10" style="edgeStyle=orthogonalEdgeStyle;rounded=0;orthogonalLoop=1;jettySize=auto;html=1;exitX=0.5;exitY=1;exitDx=0;exitDy=0;entryX=0.5;entryY=0;entryDx=0;entryDy=0;" edge="1" parent="1" source="LnFKJoCeydz4W25h7Wmq-3" target="LnFKJoCeydz4W25h7Wmq-9">
          <mxGeometry relative="1" as="geometry" />
        </mxCell>
        <mxCell id="LnFKJoCeydz4W25h7Wmq-3" value="start" style="ellipse;whiteSpace=wrap;html=1;" vertex="1" parent="1">
          <mxGeometry x="-155" y="30" width="120" height="30" as="geometry" />
        </mxCell>
        <mxCell id="LnFKJoCeydz4W25h7Wmq-8" style="edgeStyle=orthogonalEdgeStyle;rounded=0;orthogonalLoop=1;jettySize=auto;html=1;exitX=0.5;exitY=1;exitDx=0;exitDy=0;entryX=0.5;entryY=0;entryDx=0;entryDy=0;" edge="1" parent="1" source="LnFKJoCeydz4W25h7Wmq-9">
          <mxGeometry relative="1" as="geometry">
            <mxPoint x="-95" y="137" as="targetPoint" />
          </mxGeometry>
        </mxCell>
        <mxCell id="LnFKJoCeydz4W25h7Wmq-9" value="ログアウト処理" style="rounded=1;whiteSpace=wrap;html=1;fontSize=12;glass=0;strokeWidth=1;shadow=0;fillColor=#f8cecc;strokeColor=#b85450;" vertex="1" parent="1">
          <mxGeometry x="-154" y="80" width="120" height="40" as="geometry" />
        </mxCell>
        <mxCell id="LnFKJoCeydz4W25h7Wmq-13" style="edgeStyle=orthogonalEdgeStyle;rounded=0;orthogonalLoop=1;jettySize=auto;html=1;exitX=0.5;exitY=1;exitDx=0;exitDy=0;entryX=0.5;entryY=0;entryDx=0;entryDy=0;" edge="1" parent="1" source="LnFKJoCeydz4W25h7Wmq-11" target="LnFKJoCeydz4W25h7Wmq-12">
          <mxGeometry relative="1" as="geometry" />
        </mxCell>
        <mxCell id="LnFKJoCeydz4W25h7Wmq-11" value="ログイン画面に遷移" style="rounded=1;whiteSpace=wrap;html=1;fontSize=12;glass=0;strokeWidth=1;shadow=0;fillColor=#f8cecc;strokeColor=#b85450;" vertex="1" parent="1">
          <mxGeometry x="-154" y="138" width="120" height="40" as="geometry" />
        </mxCell>
        <mxCell id="LnFKJoCeydz4W25h7Wmq-12" value="end" style="ellipse;whiteSpace=wrap;html=1;" vertex="1" parent="1">
          <mxGeometry x="-155" y="200" width="120" height="30" as="geometry" />
        </mxCell>
      </root>
    </mxGraphModel>
  </diagram>
</mxfile>
